# xmcd
#
# Track frame offsets: 
#        182
#        19007
#        35462
#        53227
#        66230
#        82892
#        97352
#        111337
#        127480
#        141165
#        160232
#        173037
#        187372
#        187677
#        187982
#        188287
#        188595
#        189000
#
# Disc length: 2693 seconds
#
# Revision: 5
# Processed by: cddbd v1.5.2PL0 Copyright (c) Steve Scherf et al.
# Submitted via: ExactAudioCopyFreeDBPlugin 1.0
#
DISCID=f60a8312
DTITLE=Sawyer Brown - Six Days on the Road
DYEAR=1996
DGENRE=Country
TTITLE0=Another Side
TTITLE1=Talkin' Bout You
TTITLE2=This Night Won't Last Forever
TTITLE3=Six Days on the Road
TTITLE4=Small Talk
TTITLE5=With This Ring
TTITLE6=Transistor Rodeo
TTITLE7=Night and Day
TTITLE8=Half a Heart
TTITLE9=Between You and Paradise
TTITLE10=A Love Like This
TTITLE11=Every Twist and Turn
TTITLE12=[silence]
TTITLE13=[silence]
TTITLE14=[silence]
TTITLE15=[silence]
TTITLE16=[silence]
TTITLE17=The Nebraska Song
EXTD=YEAR: 1996 ID3G: 2
EXTT0=
EXTT1=
EXTT2=
EXTT3=
EXTT4=
EXTT5=
EXTT6=
EXTT7=
EXTT8=
EXTT9=
EXTT10=
EXTT11=
EXTT12=
EXTT13=
EXTT14=
EXTT15=
EXTT16=
EXTT17=
PLAYORDER=
